<?xml version="1.0" encoding="UTF-8"?>
<!DOCTYPE svg PUBLIC "-//W3C//DTD SVG 1.1//EN" "http://www.w3.org/Graphics/SVG/1.1/DTD/svg11.dtd">
<!-- Creator: CorelDRAW X7 -->
<svg xmlns="http://www.w3.org/2000/svg" xml:space="preserve" width="20000px" height="5000px" version="1.1" style="shape-rendering:geometricPrecision; text-rendering:geometricPrecision; image-rendering:optimizeQuality; fill-rule:evenodd; clip-rule:evenodd"
viewBox="0 0 20000 5000"
 xmlns:xlink="http://www.w3.org/1999/xlink">
 <defs>
  <style type="text/css">
   <![CDATA[
    .str0 {stroke:#373435;stroke-width:0.566929}
    .fil2 {fill:none}
    .fil3 {fill:#A5D068}
    .fil0 {fill:#FFBF00}
    .fil1 {fill:white}
    .fil5 {fill:#FEFEFE;fill-rule:nonzero}
    .fil4 {fill:white;fill-rule:nonzero}
   ]]>
  </style>
    <clipPath id="id0">
     <path d="M2579 283l0 0 1 1523 167 0 -1 -327c15,-634 512,-1150 1139,-1192 23,-3 47,-4 72,-4l620 0 0 0c0,363 -298,661 -662,661l-3 0c-277,29 -498,269 -511,564l0 299 588 0c0,336 -256,628 -588,662l0 1128c0,362 -294,657 -655,657l1 -1786 -167 0 1 563c0,675 -551,1223 -1227,1223 -675,0 -1223,-548 -1223,-1223 0,-675 560,-1224 1235,-1224l557 0 0 -867c0,-361 295,-657 656,-657zm-657 2763c0,289 -264,550 -568,550 -303,0 -565,-262 -565,-565 0,-304 259,-563 548,-563l586 -1 -1 579z"/>
    </clipPath>
 </defs>
 <g id="Camada_x0020_1">
  <metadata id="CorelCorpID_0Corel-Layer"/>
  <g id="_2213114053296">
   <path class="fil0" d="M3336 2469l95 -2c357,-5 695,-303 695,-660l-140 0c0,357 -294,662 -650,662z"/>
   <path class="fil1" d="M2579 283l0 0 1 1523 167 0 -1 -327c15,-634 512,-1150 1139,-1192 23,-3 47,-4 72,-4l620 0 0 0c0,363 -298,661 -662,661l-3 0c-277,29 -498,269 -511,564l0 299 588 0c0,336 -256,628 -588,662l0 1128c0,362 -294,657 -655,657l1 -1786 -167 0 1 563c0,675 -551,1223 -1227,1223 -675,0 -1223,-548 -1223,-1223 0,-675 560,-1224 1235,-1224l557 0 0 -867c0,-361 295,-657 656,-657zm-657 2763c0,289 -264,550 -568,550 -303,0 -565,-262 -565,-565 0,-304 259,-563 548,-563l586 -1 -1 579z"/>
   <g style="clip-path:url(#id0)">
    <g>
     <ellipse class="fil2 str0" cx="1882" cy="-976" rx="380" ry="359"/>
    </g>
   </g>
   <path class="fil2" d="M2579 283l0 0 1 1523 167 0 -1 -327c15,-634 512,-1150 1139,-1192 23,-3 47,-4 72,-4l620 0 0 0c0,363 -298,661 -662,661l-3 0c-277,29 -498,269 -511,564l0 299 588 0c0,336 -256,628 -588,662l0 1128c0,362 -294,657 -655,657l1 -1786 -167 0 1 563c0,675 -551,1223 -1227,1223 -675,0 -1223,-548 -1223,-1223 0,-675 560,-1224 1235,-1224l557 0 0 -867c0,-361 295,-657 656,-657zm-657 2763c0,289 -264,550 -568,550 -303,0 -565,-262 -565,-565 0,-304 259,-563 548,-563l586 -1 -1 579z"/>
   <path class="fil3" d="M3549 2469l97 -2c357,-5 790,-303 804,-660l-199 0c-14,357 -348,648 -702,662z"/>
   <path class="fil4" d="M6041 2500c0,140 -42,270 -127,390 -85,120 -193,203 -325,249 -70,24 -140,36 -213,36l-518 0 0 -1350 518 0c127,0 244,35 352,106 106,68 187,160 244,275 46,95 69,193 69,294zm-365 0c0,-94 -26,-176 -78,-245 -69,-92 -172,-138 -309,-138l-80 0 0 767 80 0c138,0 241,-46 309,-138 52,-71 78,-153 78,-246zm939 675l-350 0 0 -1350 350 0 0 1350zm1218 -446c0,228 -100,377 -300,446 -70,25 -144,37 -225,37 -168,0 -325,-51 -469,-153l150 -282c105,95 208,143 309,143 45,0 84,-10 116,-32 36,-24 55,-58 55,-102 0,-40 -20,-73 -61,-100 -31,-20 -82,-41 -153,-61 -87,-26 -142,-44 -164,-54 -36,-15 -67,-33 -92,-53 -71,-59 -107,-149 -107,-269 0,-125 37,-229 112,-311 86,-97 202,-145 347,-145 146,0 288,36 428,109l-140 273c-77,-60 -154,-91 -232,-91 -37,0 -71,10 -100,29 -34,22 -51,51 -51,88 0,36 22,67 66,93 20,12 79,32 178,61 124,37 213,88 265,155 46,57 68,130 68,219zm1024 -612l-292 0 0 1058 -350 0 0 -1058 -286 0 0 -292 928 0 0 292zm1273 1058l-435 0 -334 -516 0 516 -350 0 0 -1350 545 0c160,0 277,48 354,144 62,77 93,168 93,272 0,120 -36,215 -107,287 -45,45 -108,77 -188,95l422 552zm-492 -914c0,-49 -17,-89 -52,-122 -33,-31 -86,-47 -160,-47l-65 0 0 338 65 0c74,0 128,-15 160,-46 35,-34 52,-75 52,-123zm993 914l-351 0 0 -1350 351 0 0 1350zm1309 -384c0,101 -29,184 -86,247 -83,92 -209,137 -378,137l-561 0 0 -1350 520 0c254,0 381,117 381,352 0,71 -14,130 -42,177 -22,41 -58,75 -106,103 107,23 180,66 219,130 35,58 53,127 53,204zm-450 -567c0,-61 -27,-102 -82,-122 -20,-6 -46,-10 -79,-10l-64 0 0 265 64 0c60,0 103,-14 130,-44 21,-24 31,-53 31,-89zm99 545c0,-79 -40,-125 -121,-138 -25,-4 -69,-6 -131,-6l-72 0 0 283 78 0c89,0 151,-10 187,-31 39,-24 59,-60 59,-108zm1754 -166c0,82 -6,151 -20,208 -20,89 -69,170 -146,244 -109,103 -255,155 -438,155 -187,0 -332,-53 -437,-158 -55,-56 -93,-125 -114,-209 -14,-59 -21,-139 -21,-240l0 -778 350 0 0 730c0,58 1,102 3,131 6,91 48,155 125,192 32,15 67,22 105,22 86,0 151,-30 194,-90 33,-44 49,-129 49,-255l0 -730 350 0 0 778zm634 572l-350 0 0 -1350 350 0 0 1350zm1467 -675c0,140 -42,270 -127,390 -85,120 -193,203 -325,249 -69,24 -140,36 -213,36l-517 0 0 -1350 517 0c127,0 244,35 352,106 106,68 187,160 244,275 46,95 69,193 69,294zm-364 0c0,-94 -26,-176 -78,-245 -70,-92 -173,-138 -310,-138l-80 0 0 767 80 0c138,0 241,-46 310,-138 52,-71 78,-153 78,-246zm2022 5c0,183 -61,344 -183,483 -139,157 -327,236 -565,236 -236,0 -424,-79 -563,-236 -122,-139 -183,-300 -183,-483 0,-84 16,-170 49,-258 33,-88 77,-164 133,-226 139,-158 327,-236 564,-236 238,0 426,78 565,236 122,138 183,300 183,484zm-365 0c0,-96 -30,-178 -91,-247 -78,-89 -175,-133 -292,-133 -80,0 -153,22 -219,67 -65,46 -111,106 -139,182 -16,43 -24,86 -24,131 0,91 31,173 91,245 75,89 172,134 291,134 119,0 216,-44 292,-133 61,-71 91,-153 91,-246zm1707 670l-435 0 -334 -516 0 516 -351 0 0 -1350 546 0c159,0 277,48 354,144 61,77 92,168 92,272 0,120 -35,215 -106,287 -46,45 -109,77 -188,95l422 552zm-492 -914c0,-49 -18,-89 -53,-122 -32,-31 -86,-47 -159,-47l-65 0 0 338 65 0c74,0 127,-15 159,-46 35,-34 53,-75 53,-123zm1924 914l-375 0 -87 -234 -484 0 -93 234 -371 0 519 -1350 383 0 508 1350zm-555 -502l-147 -431 -149 431 296 0z"/>
   <path class="fil5" d="M4858 4325l0 -745 393 0 0 82 -304 0 0 213 304 0 0 82 -304 0 0 368 -89 0zm924 -578l-119 274 237 0 -118 -274zm0 -196l338 774 -96 0 -96 -228 -291 0 -97 228 -96 0 338 -774zm633 774l0 -745 175 0c49,0 86,3 109,9 23,5 44,15 62,28 22,18 39,41 51,70 12,29 18,61 18,96 0,61 -17,108 -51,139 -34,32 -84,48 -150,48l-15 0 284 355 -113 0 -271 -355 -13 0 0 355 -86 0zm86 -670l0 249 68 0c69,0 115,-9 139,-27 23,-17 35,-48 35,-93 0,-47 -12,-81 -36,-100 -24,-19 -70,-29 -138,-29l-68 0zm1035 699l-231 -535 -94 506 -86 0 151 -774 260 616 261 -616 151 774 -87 0 -94 -506 -231 535zm978 -607l-118 274 237 0 -119 -274zm0 -196l339 774 -96 0 -97 -228 -290 0 -97 228 -96 0 337 -774z"/>
   <polygon class="fil5" points="9716,4296 9716,3551 10109,3551 10109,3632 9804,3632 9804,3846 10109,3846 10109,3928 9804,3928 9804,4214 10109,4214 10109,4296 "/>
   <path class="fil5" d="M10898 4314l0 -745 88 0 0 286 396 0 0 -286 90 0 0 745 -90 0 0 -374 -396 0 0 374 -88 0zm1055 -335l0 335 -86 0 0 -745 156 0c55,0 95,3 121,8 26,6 48,16 67,29 24,17 42,40 56,70 13,29 20,62 20,98 0,36 -7,68 -20,98 -14,29 -32,53 -56,70 -19,13 -41,23 -67,29 -26,5 -66,8 -121,8l-25 0 -45 0zm0 -80l45 0c76,0 127,-9 154,-27 26,-17 39,-49 39,-93 0,-47 -14,-81 -40,-100 -27,-19 -78,-29 -153,-29l-45 0 0 249zm1264 -152c-35,-39 -73,-67 -114,-86 -40,-18 -85,-28 -133,-28 -40,0 -78,8 -116,24 -37,16 -70,39 -97,67 -29,30 -50,63 -64,99 -14,36 -21,77 -21,121 0,34 4,66 12,95 9,30 21,56 38,81 30,42 67,75 110,98 44,23 91,34 142,34 47,0 91,-10 132,-29 41,-20 78,-49 111,-88l0 117c-37,27 -76,47 -119,61 -42,14 -87,20 -132,20 -39,0 -78,-6 -115,-17 -37,-12 -72,-29 -105,-51 -54,-38 -95,-84 -124,-139 -29,-55 -43,-115 -43,-181 0,-57 9,-110 29,-157 19,-47 48,-89 87,-128 38,-36 80,-64 127,-82 46,-18 96,-27 151,-27 43,0 84,7 125,20 40,13 80,33 119,60l0 116z"/>
  </g>
 </g>
</svg>
