<?xml version="1.0" encoding="UTF-8"?>
<!DOCTYPE svg PUBLIC "-//W3C//DTD SVG 1.1//EN" "http://www.w3.org/Graphics/SVG/1.1/DTD/svg11.dtd">
<!-- Creator: CorelDRAW X7 -->
<svg xmlns="http://www.w3.org/2000/svg" xml:space="preserve" width="11928px" height="2459px" version="1.1" style="shape-rendering:geometricPrecision; text-rendering:geometricPrecision; image-rendering:optimizeQuality; fill-rule:evenodd; clip-rule:evenodd"
viewBox="0 0 11928 2459"
 xmlns:xlink="http://www.w3.org/1999/xlink">
 <defs>
  <style type="text/css">
   <![CDATA[
    .fil2 {fill:#01496E}
    .fil3 {fill:#A5D068}
    .fil0 {fill:#FFBF00}
    .fil1 {fill:white}
    .fil4 {fill:#01496E;fill-rule:nonzero}
   ]]>
  </style>
 </defs>
 <g id="Camada_x0020_1">
  <metadata id="CorelCorpID_0Corel-Layer"/>
  <g id="_2720442738640">
   <path class="fil0" d="M1938 1334l58 -1c215,-3 420,-183 420,-399l-85 0c0,216 -178,400 -393,400l0 0z"/>
   <path class="fil1" d="M1481 14l0 0 1 920 100 0 0 -198c9,-383 309,-695 688,-720 14,-2 28,-2 43,-2l375 0 0 0c0,219 -180,399 -400,399l-2 0c-167,17 -301,162 -308,341l0 180 355 0c0,203 -155,380 -355,400l0 682c0,218 -178,396 -396,396l0 -1078 -100 0 0 340c0,407 -333,738 -741,738 -408,0 -739,-331 -739,-738 0,-408 338,-740 746,-740l337 0 0 -524c0,-218 178,-396 396,-396l0 0zm-397 1669c0,174 -159,332 -343,332 -183,0 -341,-158 -341,-341 0,-184 156,-340 331,-340l354 -1 -1 350z"/>
   <path class="fil2" d="M1481 14l0 0 1 920 100 0 0 -198c9,-383 309,-695 688,-720 14,-2 28,-2 43,-2l375 0 0 0c0,219 -180,399 -400,399l-2 0c-167,17 -301,162 -308,341l0 180 355 0c0,203 -155,380 -355,400l0 682c0,218 -178,396 -396,396l0 -1078 -100 0 0 340c0,407 -333,738 -741,738 -408,0 -739,-331 -739,-738 0,-408 338,-740 746,-740l337 0 0 -524c0,-218 178,-396 396,-396l0 0zm-397 1669c0,174 -159,332 -343,332 -183,0 -341,-158 -341,-341 0,-184 156,-340 331,-340l354 -1 -1 350z"/>
   <path class="fil3" d="M2067 1334l59 -1c215,-3 477,-183 485,-399l-120 0c-8,216 -210,392 -424,400z"/>
   <path class="fil4" d="M3572 1353c0,84 -25,163 -76,235 -52,73 -117,123 -197,151 -42,14 -84,22 -128,22l-313 0 0 -816 313 0c76,0 147,21 212,64 64,41 113,97 148,166 27,58 41,117 41,178l0 0zm-220 0c0,-57 -16,-106 -47,-148 -42,-56 -104,-84 -187,-84l-48 0 0 464 48 0c83,0 146,-28 187,-84 31,-42 47,-92 47,-148zm567 408l-211 0 0 -816 211 0 0 816zm736 -270c0,138 -60,228 -181,270 -43,15 -87,22 -136,22 -102,0 -197,-31 -284,-92l91 -171c64,58 126,87 187,87 27,0 50,-6 70,-20 22,-14 33,-35 33,-61 0,-25 -12,-44 -37,-61 -19,-12 -49,-25 -92,-37 -53,-15 -86,-26 -99,-32 -22,-9 -41,-20 -56,-32 -43,-36 -65,-90 -65,-163 0,-75 23,-138 68,-188 52,-58 122,-87 210,-87 88,0 174,21 258,66l-84 165c-47,-37 -93,-55 -140,-55 -23,0 -43,6 -61,17 -20,13 -31,31 -31,53 0,22 14,41 40,56 12,8 48,20 108,37 75,23 128,53 160,94 28,34 41,78 41,132l0 0zm619 -370l-177 0 0 640 -211 0 0 -640 -173 0 0 -176 561 0 0 176zm769 640l-263 0 -202 -312 0 312 -211 0 0 -816 329 0c96,0 167,29 214,87 37,47 56,102 56,164 0,73 -22,130 -65,174 -27,27 -65,46 -113,57l255 334zm-298 -553c0,-29 -10,-53 -31,-73 -20,-19 -52,-29 -97,-29l-39 0 0 205 39 0c45,0 78,-10 97,-28 21,-21 31,-46 31,-75zm600 553l-212 0 0 -816 212 0 0 816zm791 -232c0,61 -17,111 -52,149 -50,55 -126,83 -228,83l-339 0 0 -816 314 0c153,0 230,71 230,213 0,43 -8,78 -25,107 -14,24 -35,45 -64,62 64,14 108,40 132,78 21,35 32,77 32,124zm-272 -343c0,-37 -16,-62 -49,-74 -12,-3 -28,-6 -48,-6l-39 0 0 160 39 0c36,0 62,-8 78,-26 13,-15 19,-32 19,-54zm60 329c0,-47 -24,-75 -73,-83 -15,-2 -42,-4 -79,-4l-44 0 0 171 47 0c54,0 92,-6 113,-18 24,-15 36,-37 36,-66zm1060 -100c0,50 -4,91 -12,126 -13,53 -42,102 -89,147 -66,62 -154,94 -264,94 -113,0 -201,-32 -264,-96 -34,-34 -56,-75 -69,-126 -9,-36 -13,-84 -13,-145l0 -470 212 0 0 441c0,35 0,62 1,79 4,55 29,94 76,116 19,9 40,13 63,13 52,0 92,-18 118,-54 19,-26 29,-78 29,-154l0 -441 212 0 0 470 0 0zm383 346l-212 0 0 -816 212 0 0 816zm886 -408c0,84 -26,163 -77,235 -51,73 -116,123 -196,151 -42,14 -85,22 -129,22l-312 0 0 -816 312 0c77,0 147,21 213,64 64,41 113,97 147,166 28,58 42,117 42,178l0 0zm-220 0c0,-57 -16,-106 -47,-148 -42,-56 -105,-84 -187,-84l-49 0 0 464 49 0c83,0 145,-28 187,-84 31,-42 47,-92 47,-148zm1221 3c0,110 -36,208 -110,292 -84,94 -198,142 -341,142 -143,0 -257,-48 -341,-142 -73,-84 -110,-182 -110,-292 0,-51 10,-103 29,-156 20,-53 47,-99 81,-137 84,-95 197,-142 341,-142 143,0 257,47 341,142 74,84 110,182 110,293zm-220 0c0,-58 -18,-108 -55,-149 -47,-54 -106,-81 -176,-81 -49,0 -93,14 -133,41 -39,28 -67,64 -84,110 -9,26 -14,52 -14,79 0,55 19,104 55,148 45,54 104,81 176,81 71,0 130,-27 176,-81 37,-42 55,-92 55,-148zm1031 405l-263 0 -201 -312 0 312 -212 0 0 -816 329 0c96,0 168,29 214,87 37,47 56,102 56,164 0,73 -21,130 -64,174 -28,27 -66,46 -114,57l255 334zm-297 -553c0,-29 -11,-53 -32,-73 -19,-19 -52,-29 -96,-29l-39 0 0 205 39 0c45,0 77,-10 96,-28 21,-21 32,-46 32,-75zm1162 553l-226 0 -53 -142 -292 0 -56 142 -225 0 314 -816 231 0 307 816 0 0zm-335 -304l-89 -260 -90 260 179 0z"/>
   <path class="fil4" d="M2858 2455l0 -450 237 0 0 50 -184 0 0 128 184 0 0 50 -184 0 0 222 -53 0 0 0zm558 -349l-72 166 143 0 -71 -166 0 0zm0 -118l204 467 -58 0 -58 -137 -176 0 -58 137 -58 0 204 -467zm382 467l0 -450 106 0c30,0 52,2 66,6 14,3 26,9 37,17 14,11 24,24 31,42 7,17 11,37 11,58 0,37 -10,65 -31,84 -20,19 -51,29 -90,29l-9 0 171 214 -68 0 -164 -214 -8 0 0 214 -52 0zm52 -404l0 150 41 0c42,0 70,-5 84,-16 14,-11 21,-29 21,-56 0,-29 -7,-49 -21,-61 -15,-11 -43,-17 -84,-17l-41 0zm626 422l-140 -323 -57 305 -52 0 91 -467 158 372 157 -372 91 467 -52 0 -57 -305 -139 323zm590 -367l-71 166 143 0 -72 -166 0 0zm0 -118l205 467 -58 0 -58 -137 -176 0 -58 137 -58 0 203 -467z"/>
   <polygon class="fil4" points="5792,2438 5792,1988 6030,1988 6030,2037 5846,2037 5846,2166 6030,2166 6030,2216 5846,2216 5846,2388 6030,2388 6030,2438 "/>
   <path class="fil4" d="M6507 2449l0 -450 53 0 0 172 239 0 0 -172 54 0 0 450 -54 0 0 -226 -239 0 0 226 -53 0zm637 -203l0 203 -52 0 0 -450 94 0c33,0 58,1 73,4 16,4 29,10 41,18 14,10 25,24 34,42 7,18 12,38 12,59 0,22 -5,42 -12,60 -9,17 -20,32 -34,42 -12,8 -25,14 -41,17 -15,4 -40,5 -73,5l-15 0 -27 0 0 0zm0 -48l27 0c46,0 77,-5 93,-16 16,-11 24,-30 24,-57 0,-28 -9,-48 -25,-60 -16,-11 -47,-17 -92,-17l-27 0 0 150zm763 -92c-21,-23 -44,-40 -68,-52 -25,-11 -52,-17 -81,-17 -24,0 -47,5 -70,15 -22,9 -42,23 -58,40 -18,18 -31,38 -39,60 -9,22 -13,47 -13,73 0,21 3,40 7,58 6,18 13,33 23,49 19,25 41,45 67,59 26,14 55,20 86,20 28,0 55,-6 79,-17 25,-12 48,-30 67,-53l0 70c-22,17 -45,29 -71,37 -26,9 -53,12 -80,12 -24,0 -47,-3 -70,-10 -22,-7 -43,-18 -63,-31 -33,-23 -57,-51 -75,-84 -17,-33 -26,-69 -26,-109 0,-35 5,-67 18,-95 11,-28 29,-54 52,-77 23,-22 48,-39 77,-50 28,-11 58,-16 91,-16 26,0 51,4 76,12 24,8 48,20 71,36l0 70 0 0z"/>
  </g>
 </g>
</svg>
