<?xml version="1.0" encoding="UTF-8"?>
<!DOCTYPE svg PUBLIC "-//W3C//DTD SVG 1.1//EN" "http://www.w3.org/Graphics/SVG/1.1/DTD/svg11.dtd">
<!-- Creator: CorelDRAW X7 -->
<svg xmlns="http://www.w3.org/2000/svg" xml:space="preserve" width="4508px" height="1209px" version="1.1" style="shape-rendering:geometricPrecision; text-rendering:geometricPrecision; image-rendering:optimizeQuality; fill-rule:evenodd; clip-rule:evenodd"
viewBox="0 0 4508 1209"
 xmlns:xlink="http://www.w3.org/1999/xlink">
 <defs>
  <style type="text/css">
   <![CDATA[
    .fil0 {fill:#FEFEFE}
    .fil1 {fill:#FEFEFE;fill-rule:nonzero}
   ]]>
  </style>
 </defs>
 <g id="Camada_x0020_1">
  <metadata id="CorelCorpID_0Corel-Layer"/>
  <g id="_2288625908704">
   <polygon class="fil0" points="779,3 963,3 963,187 804,187 710,283 710,443 526,443 526,259 684,259 779,162 "/>
   <polygon class="fil0" points="525,508 709,508 709,690 549,690 460,781 460,938 304,938 216,1020 216,1189 32,1189 32,1005 180,1005 277,916 277,754 437,754 525,666 "/>
   <polygon class="fil0" points="777,259 928,259 1023,163 1023,2 1207,2 1207,186 1050,186 961,275 961,443 777,443 "/>
   <polygon class="fil0" points="526,754 677,754 777,667 777,508 960,508 960,691 801,691 710,771 710,938 526,938 "/>
   <polygon class="fil0" points="777,754 960,754 960,938 777,938 "/>
   <polygon class="fil0" points="277,259 461,259 461,443 277,443 "/>
   <polygon class="fil1" points="191,754 277,671 277,508 461,508 461,692 306,692 215,781 215,938 31,938 31,754 "/>
   <path class="fil1" d="M4458 555c0,11 -2,19 -7,24 -5,6 -12,8 -20,8l-197 0c0,14 2,27 5,38 3,11 8,21 15,28 8,8 17,14 28,18 11,4 25,7 40,7 16,0 30,-2 42,-4 12,-2 23,-5 32,-8 8,-2 16,-5 22,-7 5,-2 10,-4 14,-4 2,0 4,1 5,2 2,1 3,2 4,4 1,2 1,5 2,10 0,3 0,8 0,14 0,6 0,10 0,14 0,4 -1,7 -1,10 -1,2 -1,5 -2,6 -1,2 -3,4 -4,6 -2,1 -6,4 -13,6 -7,3 -16,6 -27,9 -11,3 -23,5 -37,7 -14,2 -29,3 -45,3 -29,0 -54,-3 -75,-11 -22,-7 -40,-18 -55,-32 -14,-15 -25,-34 -32,-56 -7,-23 -11,-49 -11,-79 0,-29 4,-55 12,-78 7,-23 18,-42 32,-58 14,-16 32,-29 52,-37 21,-9 44,-13 69,-13 27,0 50,4 69,12 20,8 35,19 48,33 12,14 21,31 27,50 6,20 8,41 8,63l0 15zm-88 -26c1,-26 -4,-46 -15,-60 -11,-15 -28,-22 -51,-22 -12,0 -22,2 -30,6 -9,4 -16,10 -22,18 -5,7 -10,16 -13,26 -3,10 -4,20 -5,32l136 0z"/>
   <path class="fil1" d="M4117 726c0,2 0,5 -1,6 -2,2 -4,4 -7,5 -2,1 -6,2 -11,2 -5,1 -11,1 -19,1 -7,0 -14,0 -18,-1 -5,0 -9,-1 -12,-2 -3,-1 -5,-3 -7,-5 -1,-1 -2,-4 -2,-6l0 -36c-16,18 -34,32 -52,41 -18,10 -38,15 -61,15 -24,0 -45,-4 -62,-14 -17,-9 -31,-22 -42,-38 -10,-17 -18,-36 -23,-57 -5,-22 -7,-45 -7,-68 0,-29 3,-55 9,-78 6,-23 15,-42 27,-59 12,-16 27,-28 44,-37 18,-8 38,-13 61,-13 18,0 34,4 49,11 15,8 29,18 44,33l0 -175c0,-3 1,-5 2,-7 1,-2 4,-3 7,-5 4,-1 8,-2 14,-3 6,0 13,-1 22,-1 9,0 16,1 22,1 6,1 11,2 14,3 3,2 6,3 7,5 2,2 2,4 2,7l0 475zm-90 -216c-13,-17 -26,-29 -38,-38 -12,-8 -24,-13 -37,-13 -12,0 -22,3 -31,9 -8,6 -15,14 -20,24 -5,10 -9,21 -12,33 -2,12 -4,25 -4,37 0,14 2,27 4,40 2,13 5,24 10,34 5,10 12,18 20,24 8,6 19,9 31,9 6,0 13,-1 18,-3 6,-1 12,-4 19,-8 6,-5 12,-10 19,-16 6,-7 13,-15 21,-25l0 -107z"/>
   <path class="fil1" d="M3633 244c2,-2 4,-5 6,-7 3,-1 6,-3 9,-4 4,-1 8,-2 14,-2 6,-1 12,-1 20,-1 11,0 20,0 27,1 6,1 11,3 13,4 3,2 4,4 4,7 0,2 -1,5 -3,7l-71 84c-2,3 -4,5 -6,6 -1,2 -4,3 -7,4 -3,1 -7,2 -11,2 -5,1 -11,1 -18,1 -8,0 -15,0 -20,-1 -5,-1 -8,-2 -10,-3 -2,-2 -3,-4 -3,-7 1,-2 2,-5 4,-8l52 -83z"/>
   <path class="fil1" d="M3769 726c0,2 -1,4 -2,6 -2,2 -4,3 -7,5 -3,1 -7,2 -12,2 -5,1 -11,1 -18,1 -8,0 -15,0 -20,-1 -5,0 -8,-1 -11,-2 -3,-2 -5,-3 -7,-5 -1,-2 -1,-4 -1,-6l0 -38c-18,20 -36,34 -55,44 -18,9 -37,14 -57,14 -22,0 -41,-3 -56,-11 -15,-7 -27,-17 -37,-29 -9,-13 -16,-27 -20,-44 -4,-16 -6,-37 -6,-62l0 -197c0,-3 1,-5 2,-6 2,-2 4,-4 8,-5 3,-1 8,-2 14,-3 6,0 13,-1 22,-1 9,0 16,1 22,1 6,1 10,2 14,3 3,1 6,3 7,5 2,1 2,3 2,6l0 182c0,17 1,30 4,39 2,9 5,17 10,23 4,6 10,11 16,15 7,3 15,5 25,5 11,0 23,-4 35,-13 11,-8 24,-20 37,-37l0 -214c0,-3 1,-5 2,-6 1,-2 4,-4 7,-5 4,-1 8,-2 14,-3 6,0 13,-1 22,-1 9,0 16,1 22,1 6,1 11,2 14,3 3,1 6,3 7,5 2,1 3,3 3,6l0 323z"/>
   <path class="fil1" d="M3420 727c0,3 -1,6 -3,8 -3,2 -7,3 -12,4 -5,1 -13,1 -23,1 -11,0 -19,0 -24,-1 -4,-1 -8,-2 -10,-4 -2,-2 -3,-5 -3,-8l0 -26c-13,14 -29,25 -45,33 -17,8 -36,12 -57,12 -17,0 -33,-2 -47,-6 -15,-5 -27,-12 -38,-20 -10,-9 -18,-20 -24,-33 -6,-13 -9,-28 -9,-46 0,-19 4,-35 11,-49 8,-14 19,-25 33,-34 15,-9 33,-16 55,-20 21,-4 47,-7 75,-7l32 0 0 -19c0,-10 -1,-19 -3,-27 -2,-7 -6,-14 -10,-19 -5,-5 -11,-9 -19,-11 -8,-3 -18,-4 -29,-4 -16,0 -29,2 -41,5 -12,4 -23,7 -32,12 -9,4 -17,7 -23,11 -6,3 -11,5 -15,5 -2,0 -5,-1 -7,-3 -2,-1 -4,-4 -5,-7 -1,-3 -2,-7 -3,-11 -1,-5 -1,-10 -1,-16 0,-7 1,-13 2,-17 1,-5 3,-9 7,-12 3,-4 9,-8 17,-12 9,-4 19,-8 30,-11 11,-4 24,-7 37,-9 14,-3 27,-4 42,-4 25,0 47,3 65,8 18,5 32,12 44,22 12,11 20,24 25,40 6,16 8,35 8,58l0 217zm-89 -138l-35 0c-15,0 -27,1 -38,3 -10,2 -18,5 -25,9 -6,5 -11,10 -14,16 -3,6 -5,14 -5,21 0,14 5,25 13,32 9,8 21,12 36,12 13,0 24,-3 35,-10 11,-6 22,-16 33,-29l0 -54z"/>
   <path class="fil1" d="M3127 598c0,24 -5,46 -14,64 -9,19 -22,34 -37,47 -16,12 -34,22 -55,28 -21,6 -44,9 -68,9 -16,0 -31,-1 -45,-4 -14,-2 -26,-5 -36,-9 -11,-4 -20,-8 -27,-12 -7,-4 -12,-8 -15,-11 -4,-3 -6,-8 -7,-13 -2,-6 -2,-15 -2,-26 0,-8 0,-14 0,-19 1,-5 2,-9 3,-12 1,-3 2,-5 4,-7 2,-1 4,-2 7,-2 3,0 8,2 14,6 6,4 14,9 24,13 9,5 21,10 34,14 14,4 29,6 47,6 11,0 22,-2 31,-5 9,-2 17,-6 23,-11 6,-5 11,-12 15,-19 3,-8 5,-16 5,-25 0,-11 -3,-20 -9,-27 -6,-8 -13,-15 -22,-21 -10,-6 -20,-11 -32,-16 -12,-6 -24,-11 -37,-17 -12,-6 -24,-12 -36,-20 -12,-7 -23,-16 -32,-26 -9,-10 -17,-22 -23,-36 -5,-14 -8,-31 -8,-51 0,-22 4,-42 12,-59 9,-17 20,-31 34,-42 14,-11 31,-20 50,-25 19,-6 39,-9 61,-9 11,0 22,1 33,3 11,2 22,4 31,7 10,3 18,6 26,9 8,4 12,7 15,10 2,2 4,4 5,6 1,1 1,4 2,6 0,3 1,7 1,11 0,4 0,9 0,16 0,7 0,13 0,17 0,5 -1,9 -2,12 -1,3 -2,6 -3,7 -2,2 -4,2 -7,2 -2,0 -7,-1 -12,-5 -6,-3 -13,-7 -22,-11 -8,-4 -18,-7 -29,-11 -11,-3 -23,-5 -37,-5 -10,0 -19,2 -27,4 -8,3 -14,6 -19,11 -5,4 -9,10 -12,16 -2,6 -4,13 -4,20 0,10 3,19 9,27 6,7 13,14 23,20 9,6 20,12 32,17 12,5 24,10 37,16 13,6 25,13 37,20 12,7 23,16 32,26 10,11 17,23 23,36 6,14 9,31 9,50z"/>
   <path class="fil1" d="M2656 634c0,19 -3,35 -10,49 -7,14 -16,26 -29,35 -13,9 -27,17 -45,21 -17,5 -35,7 -55,7 -12,0 -24,-1 -35,-2 -11,-2 -21,-5 -29,-7 -9,-3 -16,-6 -22,-9 -6,-3 -10,-5 -13,-8 -2,-3 -4,-6 -6,-12 -1,-5 -2,-13 -2,-24 0,-7 0,-13 1,-17 0,-4 1,-7 2,-10 1,-2 2,-4 4,-5 1,-1 3,-1 5,-1 3,0 7,1 12,4 5,3 11,7 19,10 8,4 17,7 27,10 10,4 22,5 35,5 8,0 15,-1 22,-2 6,-2 12,-4 16,-8 5,-3 9,-7 11,-12 3,-5 4,-10 4,-16 0,-8 -2,-14 -7,-19 -4,-5 -10,-10 -18,-13 -7,-4 -15,-8 -25,-11 -9,-4 -18,-8 -28,-12 -10,-4 -19,-8 -29,-14 -9,-5 -17,-12 -25,-19 -7,-8 -13,-17 -17,-28 -5,-11 -7,-24 -7,-39 0,-16 3,-30 9,-43 6,-13 15,-24 26,-33 11,-9 25,-16 41,-21 17,-5 35,-8 55,-8 10,0 20,1 30,2 9,2 18,4 26,6 7,2 14,4 19,7 5,2 9,5 12,6 2,2 3,4 4,6 1,2 2,4 3,6 0,3 0,6 1,10 0,4 0,8 0,14 0,6 0,12 0,16 -1,4 -1,7 -2,9 -1,3 -2,4 -3,5 -2,1 -4,2 -5,2 -3,0 -6,-2 -11,-4 -4,-3 -10,-6 -17,-8 -7,-3 -15,-6 -24,-9 -9,-2 -19,-3 -31,-3 -8,0 -15,0 -21,2 -6,2 -11,4 -15,7 -4,4 -7,7 -9,11 -1,5 -2,9 -2,14 0,7 2,14 7,19 4,5 10,9 18,13 7,4 15,8 25,11 10,3 19,7 29,11 10,4 19,9 29,14 9,5 18,12 26,20 7,7 13,17 18,27 4,11 6,24 6,38z"/>
   <path class="fil1" d="M2266 244c2,-2 4,-5 6,-7 2,-1 5,-3 9,-4 4,-1 8,-2 14,-2 5,-1 12,-1 20,-1 11,0 20,0 26,1 7,1 11,3 14,4 3,2 4,4 4,7 0,2 -2,5 -4,7l-70 84c-2,3 -4,5 -6,6 -2,2 -4,3 -7,4 -3,1 -7,2 -12,2 -4,1 -10,1 -17,1 -8,0 -15,0 -20,-1 -5,-1 -8,-2 -10,-3 -2,-2 -3,-4 -3,-7 1,-2 2,-5 4,-8l52 -83z"/>
   <path class="fil1" d="M2387 727c0,3 -1,6 -4,8 -2,2 -6,3 -11,4 -5,1 -13,1 -23,1 -11,0 -19,0 -24,-1 -5,-1 -8,-2 -10,-4 -2,-2 -3,-5 -3,-8l0 -26c-13,14 -29,25 -46,33 -17,8 -35,12 -56,12 -17,0 -33,-2 -47,-6 -15,-5 -27,-12 -38,-20 -10,-9 -18,-20 -24,-33 -6,-13 -9,-28 -9,-46 0,-19 4,-35 11,-49 8,-14 19,-25 33,-34 15,-9 33,-16 55,-20 21,-4 47,-7 75,-7l32 0 0 -19c0,-10 -1,-19 -3,-27 -2,-7 -6,-14 -10,-19 -5,-5 -11,-9 -19,-11 -8,-3 -18,-4 -29,-4 -16,0 -29,2 -41,5 -12,4 -23,7 -32,12 -9,4 -17,7 -23,11 -6,3 -11,5 -15,5 -2,0 -5,-1 -7,-3 -2,-1 -4,-4 -5,-7 -1,-3 -2,-7 -3,-11 -1,-5 -1,-10 -1,-16 0,-7 0,-13 2,-17 1,-5 3,-9 7,-12 3,-4 9,-8 17,-12 9,-4 19,-8 30,-11 11,-4 24,-7 37,-9 13,-3 27,-4 41,-4 26,0 48,3 65,8 19,5 33,12 45,22 11,11 20,24 25,40 5,16 8,35 8,58l0 217zm-89 -138l-35 0c-15,0 -27,1 -38,3 -10,2 -18,5 -25,9 -7,5 -11,10 -14,16 -3,6 -5,14 -5,21 0,14 4,25 13,32 9,8 20,12 36,12 13,0 24,-3 35,-10 11,-6 22,-16 33,-29l0 -54z"/>
   <path class="fil1" d="M2077 293c0,19 -4,31 -11,39 -8,7 -22,10 -42,10 -21,0 -34,-3 -41,-10 -8,-7 -11,-19 -11,-37 0,-18 4,-31 11,-38 7,-7 21,-11 42,-11 20,0 34,4 41,11 7,7 11,19 11,36z"/>
   <path class="fil1" d="M2070 726c0,2 -1,4 -2,6 -2,2 -4,3 -8,5 -3,1 -8,2 -14,2 -5,1 -13,1 -22,1 -9,0 -16,0 -22,-1 -5,0 -10,-1 -14,-2 -3,-2 -6,-3 -7,-5 -1,-2 -2,-4 -2,-6l0 -322c0,-3 1,-5 2,-7 1,-2 4,-3 7,-4 4,-2 9,-3 14,-4 6,0 13,-1 22,-1 9,0 17,1 22,1 6,1 11,2 14,4 4,1 6,2 8,4 1,2 2,4 2,7l0 322z"/>
   <path class="fil1" d="M1956 561c0,28 -4,53 -11,75 -8,23 -19,43 -33,59 -15,16 -33,29 -56,38 -22,9 -48,13 -77,13 -29,0 -54,-4 -75,-12 -22,-8 -39,-19 -53,-34 -14,-16 -25,-34 -31,-57 -7,-22 -10,-47 -10,-75 0,-28 3,-53 11,-76 7,-23 18,-42 33,-59 14,-16 33,-28 55,-37 22,-9 48,-14 78,-14 29,0 54,4 75,12 21,8 39,19 52,35 14,15 25,33 31,56 7,22 11,47 11,76zm-94 4c0,-16 -1,-31 -4,-44 -2,-14 -7,-25 -13,-35 -6,-10 -14,-18 -24,-23 -10,-6 -23,-9 -38,-9 -13,0 -25,3 -35,8 -10,5 -19,12 -25,21 -7,10 -12,21 -15,35 -3,13 -5,28 -5,46 0,15 2,30 4,44 3,13 7,24 13,34 6,10 14,18 24,23 10,6 23,9 38,9 14,0 25,-3 36,-8 10,-5 18,-12 25,-21 6,-10 11,-21 14,-35 3,-13 5,-28 5,-45z"/>
   <path class="fil1" d="M1587 342c0,7 -1,13 -1,18 -1,5 -2,10 -3,13 -1,3 -2,5 -4,6 -1,1 -3,2 -5,2 -3,0 -9,-2 -15,-7 -7,-4 -17,-9 -28,-14 -12,-5 -26,-10 -42,-14 -16,-4 -34,-7 -56,-7 -22,0 -43,4 -61,12 -19,8 -34,19 -47,34 -13,14 -23,31 -30,51 -7,20 -11,43 -11,67 0,27 4,50 11,71 7,20 17,37 30,51 13,14 28,24 46,31 18,7 38,11 59,11 11,0 21,-2 32,-4 10,-2 20,-6 29,-11l0 -108 -89 0c-4,0 -8,-3 -10,-8 -2,-6 -4,-15 -4,-28 0,-7 1,-13 1,-17 1,-5 2,-9 3,-11 1,-3 3,-5 4,-6 2,-2 4,-2 6,-2l158 0c4,0 8,0 11,2 3,1 5,3 8,6 2,2 4,5 5,9 1,4 2,8 2,13l0 186c0,8 -2,14 -4,19 -3,6 -8,10 -16,13 -8,3 -17,7 -29,10 -11,3 -23,6 -36,9 -12,2 -25,4 -37,5 -13,1 -26,2 -39,2 -37,0 -71,-5 -100,-16 -30,-11 -55,-26 -75,-47 -21,-20 -36,-45 -47,-74 -11,-30 -17,-63 -17,-100 0,-38 6,-73 18,-103 11,-31 28,-57 49,-78 21,-22 47,-38 77,-49 30,-12 64,-17 100,-17 21,0 39,1 56,4 16,3 31,6 43,10 13,4 23,8 31,13 9,4 14,8 17,12 4,3 6,8 8,14 1,6 2,15 2,27z"/>
   <path class="fil1" d="M1219 929l9 0c5,0 9,-1 11,-1 2,-1 3,-2 4,-4 2,-3 4,-7 5,-12 0,-6 1,-14 1,-26 0,-11 -1,-19 -2,-25 -1,-5 -2,-9 -5,-11 -1,-2 -3,-3 -5,-3 -2,-1 -5,-1 -9,-1l-9 0 0 83zm-22 17l0 -117 35 0c7,0 13,1 17,2 4,1 8,3 11,6 4,4 7,9 8,15 2,6 3,15 3,28 0,17 -1,29 -2,36 -1,6 -3,12 -6,17 -2,5 -6,8 -11,10 -5,2 -13,3 -25,3l-30 0zm92 0l0 -117 21 0 0 117 -21 0zm39 -41l22 0 0 7c0,8 1,13 3,15 1,3 5,4 9,4 5,0 8,-1 11,-3 2,-3 3,-6 3,-11 0,-3 -1,-6 -2,-9 -2,-2 -6,-6 -11,-9l-11 -8c-10,-7 -16,-13 -19,-17 -2,-4 -4,-10 -4,-16 0,-10 3,-18 9,-23 6,-6 14,-9 24,-9 11,0 19,3 25,9 6,6 9,14 9,26 0,1 0,2 0,2 0,1 0,1 0,2l-21 0 0 -3c0,-7 -1,-11 -3,-14 -2,-3 -6,-4 -10,-4 -4,0 -7,1 -9,3 -2,2 -3,5 -3,9 0,4 5,10 14,16l0 0 12 8c9,6 14,11 17,16 3,5 5,12 5,20 0,10 -3,18 -9,24 -6,6 -15,9 -26,9 -12,0 -21,-3 -27,-9 -5,-6 -8,-16 -8,-28 0,-1 0,-4 0,-7l0 0zm104 41l0 -98 -25 0 0 -19 72 0 0 19 -25 0 0 98 -22 0zm80 -68l12 0c7,0 11,-1 13,-3 3,-3 4,-7 4,-14 0,-6 -1,-10 -4,-12 -3,-3 -7,-4 -15,-4l-10 0 0 33zm-21 68l0 -117 39 0c12,0 20,2 25,7 5,5 8,13 8,24 0,7 -1,13 -4,18 -3,4 -7,7 -13,7 11,3 16,12 17,27 0,0 0,1 0,1l0 16c1,4 1,7 2,10 1,3 2,5 4,7l-26 0c0,-2 -1,-4 -1,-7 0,-3 0,-6 -1,-11l0 -12 0 -4c0,-6 -1,-11 -4,-14 -3,-2 -9,-3 -18,-3l-7 0 0 51 -21 0zm89 0l0 -117 22 0 0 117 -22 0zm63 -17l9 0c6,0 10,-1 12,-4 2,-3 4,-7 4,-14 0,-7 -2,-12 -4,-15 -3,-3 -7,-4 -14,-4l-7 0 0 37zm0 -53l8 0c5,0 9,-1 11,-3 2,-2 3,-7 3,-13 0,-6 -1,-10 -3,-12 -2,-2 -6,-3 -12,-3l-7 0 0 31zm-21 70l0 -117 35 0c10,0 18,2 23,7 4,5 7,12 7,21 0,8 -1,14 -4,18 -2,5 -6,7 -11,8 6,1 10,4 13,8 3,5 5,11 5,19 0,12 -3,21 -8,27 -5,6 -13,9 -24,9l-36 0zm85 -117l22 0 0 79c0,9 1,15 3,18 2,3 6,5 12,5 5,0 9,-2 11,-5 3,-3 4,-9 4,-18l0 -79 21 0 0 81c0,8 0,13 -1,17 -1,4 -3,7 -5,9 -3,5 -7,8 -12,10 -5,2 -11,3 -18,3 -14,0 -23,-3 -29,-9 -5,-6 -8,-16 -8,-30l0 -81zm93 117l0 -117 22 0 0 117 -22 0zm63 -17l10 0c5,0 8,-1 10,-1 2,-1 4,-2 5,-4 2,-3 3,-7 4,-12 1,-6 1,-14 1,-26 0,-11 0,-19 -1,-25 -1,-5 -3,-9 -5,-11 -2,-2 -3,-3 -5,-3 -2,-1 -5,-1 -10,-1l-9 0 0 83zm-21 17l0 -117 35 0c7,0 12,1 17,2 4,1 7,3 10,6 4,4 7,9 9,15 2,6 2,15 2,28 0,17 0,29 -1,36 -1,6 -3,12 -6,17 -3,5 -7,8 -11,10 -5,2 -14,3 -25,3l-30 0zm111 -59c0,20 1,32 3,37 3,5 7,7 13,7 6,0 10,-2 12,-7 2,-5 3,-17 3,-37 0,-19 -1,-31 -3,-36 -2,-5 -6,-8 -12,-8 -6,0 -10,3 -13,8 -2,5 -3,17 -3,36zm-22 0c0,-12 0,-22 2,-29 1,-8 2,-13 5,-17 3,-5 7,-9 12,-11 5,-3 11,-4 19,-4 7,0 14,1 18,4 5,2 9,6 13,11 2,4 4,9 5,17 1,7 2,17 2,29 0,13 -1,23 -2,30 -1,8 -3,13 -5,17 -4,5 -8,9 -13,11 -4,3 -11,4 -18,4 -8,0 -14,-1 -19,-4 -5,-2 -9,-6 -12,-11 -3,-4 -4,-9 -5,-17 -2,-7 -2,-17 -2,-30zm115 -9l12 0c6,0 11,-1 13,-3 3,-3 4,-7 4,-14 0,-6 -1,-10 -4,-12 -3,-3 -8,-4 -15,-4l-10 0 0 33zm-22 68l0 -117 40 0c11,0 20,2 25,7 5,5 8,13 8,24 0,7 -2,13 -4,18 -3,4 -7,7 -13,7 11,3 16,12 16,27 0,0 0,1 0,1l1 16c0,4 1,7 2,10 1,3 2,5 4,7l-26 0c0,-2 -1,-4 -1,-7 0,-3 -1,-6 -1,-11l0 -12 0 -4c0,-6 -2,-11 -4,-14 -3,-2 -9,-3 -18,-3l-7 0 0 51 -22 0zm113 -47l19 0 -10 -49 -9 49zm-31 47l26 -117 29 0 27 117 -24 0 -5 -29 -25 0 -6 29 -22 0zm154 -17l9 0c5,0 9,-1 11,-1 2,-1 3,-2 4,-4 2,-3 4,-7 5,-12 1,-6 1,-14 1,-26 0,-11 -1,-19 -2,-25 -1,-5 -2,-9 -5,-11 -1,-2 -3,-3 -5,-3 -2,-1 -5,-1 -9,-1l-9 0 0 83zm-22 17l0 -117 35 0c7,0 13,1 17,2 5,1 8,3 11,6 4,4 7,9 9,15 1,6 2,15 2,28 0,17 0,29 -2,36 -1,6 -3,12 -6,17 -2,5 -6,8 -11,10 -5,2 -13,3 -25,3l-30 0zm92 0l0 -117 60 0 0 19 -39 0 0 27 36 0 0 19 -36 0 0 32 40 0 0 20 -61 0zm116 0l0 -117 33 0 16 76 16 -76 32 0 0 117 -20 0 0 -104 -22 104 -13 0 -22 -104 1 104 -21 0zm117 0l0 -117 60 0 0 19 -38 0 0 27 36 0 0 19 -36 0 0 32 39 0 0 20 -61 0zm99 -17l9 0c5,0 9,-1 11,-1 2,-1 3,-2 4,-4 2,-3 4,-7 5,-12 1,-6 1,-14 1,-26 0,-11 0,-19 -1,-25 -1,-5 -3,-9 -6,-11 -1,-2 -2,-3 -4,-3 -2,-1 -6,-1 -10,-1l-9 0 0 83zm-22 17l0 -117 35 0c8,0 13,1 18,2 4,1 7,3 10,6 4,4 7,9 9,15 1,6 2,15 2,28 0,17 0,29 -2,36 -1,6 -3,12 -5,17 -3,5 -7,8 -12,10 -4,2 -13,3 -25,3l-30 0zm92 0l0 -117 22 0 0 117 -22 0zm88 -42l21 0c0,1 0,2 0,3 0,1 0,1 0,2 0,13 -2,23 -8,30 -6,7 -15,10 -26,10 -6,0 -11,-1 -15,-2 -4,-2 -7,-4 -10,-7 -4,-4 -7,-10 -8,-17 -2,-7 -3,-19 -3,-37 0,-12 1,-22 2,-29 1,-7 2,-12 4,-16 3,-5 7,-9 12,-11 5,-3 11,-4 18,-4 12,0 20,3 26,9 5,7 8,17 8,30l-21 0 0 -3c0,-6 -1,-11 -3,-14 -2,-3 -6,-4 -10,-4 -5,0 -9,2 -10,6 -2,4 -3,16 -3,36 0,21 1,34 2,38 2,5 6,7 11,7 5,0 8,-2 10,-5 2,-4 3,-10 3,-20l0 -2zm62 -5l18 0 -9 -49 -9 49zm-32 47l27 -117 29 0 27 117 -24 0 -6 -29 -25 0 -5 29 -23 0zm94 0l0 -117 33 0 16 76 16 -76 33 0 0 117 -21 0 0 -104 -21 104 -14 0 -22 -104 1 104 -21 0zm118 0l0 -117 60 0 0 19 -39 0 0 27 36 0 0 19 -36 0 0 32 40 0 0 20 -61 0zm77 0l0 -117 22 0 31 82 -1 -82 21 0 0 117 -23 0 -30 -82 0 82 -20 0zm109 0l0 -98 -25 0 0 -19 72 0 0 19 -25 0 0 98 -22 0zm78 -59c0,20 1,32 4,37 2,5 6,7 12,7 6,0 10,-2 12,-7 3,-5 4,-17 4,-37 0,-19 -1,-31 -4,-36 -2,-5 -6,-8 -12,-8 -6,0 -10,3 -12,8 -3,5 -4,17 -4,36zm-22 0c0,-12 1,-22 2,-29 1,-8 3,-13 5,-17 4,-5 8,-9 12,-11 5,-3 11,-4 19,-4 8,0 14,1 19,4 4,2 8,6 12,11 2,4 4,9 5,17 1,7 2,17 2,29 0,13 -1,23 -2,30 -1,8 -3,13 -5,17 -4,5 -8,9 -12,11 -5,3 -11,4 -19,4 -8,0 -14,-1 -19,-4 -4,-2 -8,-6 -12,-11 -2,-4 -4,-9 -5,-17 -1,-7 -2,-17 -2,-30zm92 18l21 0 0 7c0,8 1,13 3,15 2,3 5,4 9,4 5,0 9,-1 11,-3 2,-3 4,-6 4,-11 0,-3 -1,-6 -3,-9 -2,-2 -5,-6 -11,-9l-11 -8c-10,-7 -16,-13 -18,-17 -3,-4 -4,-10 -4,-16 0,-10 3,-18 8,-23 6,-6 14,-9 25,-9 10,0 19,3 24,9 6,6 9,14 9,26 0,1 0,2 0,2 0,1 0,1 0,2l-21 0 0 -3c0,-7 -1,-11 -3,-14 -2,-3 -5,-4 -10,-4 -4,0 -6,1 -8,3 -2,2 -3,5 -3,9 0,4 4,10 13,16l0 0 12 8c9,6 15,11 18,16 3,5 4,12 4,20 0,10 -3,18 -9,24 -6,6 -15,9 -26,9 -12,0 -20,-3 -26,-9 -6,-6 -9,-16 -9,-28 0,-1 0,-4 1,-7l0 0zm126 41l0 -117 60 0 0 19 -38 0 0 27 35 0 0 19 -35 0 0 32 39 0 0 20 -61 0zm162 -42l22 0c0,1 0,2 0,3 0,1 0,1 0,2 0,13 -3,23 -9,30 -5,7 -14,10 -26,10 -6,0 -10,-1 -14,-2 -4,-2 -8,-4 -11,-7 -4,-4 -6,-10 -8,-17 -2,-7 -2,-19 -2,-37 0,-12 0,-22 1,-29 1,-7 2,-12 4,-16 4,-5 8,-9 12,-11 5,-3 11,-4 18,-4 12,0 21,3 26,9 5,7 8,17 8,30l-21 0 0 -3c0,-6 -1,-11 -3,-14 -2,-3 -5,-4 -9,-4 -6,0 -9,2 -11,6 -2,4 -3,16 -3,36 0,21 1,34 3,38 2,5 5,7 10,7 5,0 9,-2 11,-5 1,-4 2,-10 2,-20l0 -2zm59 -17c0,20 1,32 3,37 3,5 7,7 13,7 6,0 10,-2 12,-7 2,-5 3,-17 3,-37 0,-19 -1,-31 -3,-36 -2,-5 -6,-8 -12,-8 -6,0 -10,3 -13,8 -2,5 -3,17 -3,36zm-22 0c0,-12 0,-22 2,-29 1,-8 3,-13 5,-17 3,-5 7,-9 12,-11 5,-3 11,-4 19,-4 7,0 14,1 18,4 5,2 9,6 13,11 2,4 4,9 5,17 1,7 2,17 2,29 0,13 -1,23 -2,30 -1,8 -3,13 -5,17 -4,5 -8,9 -13,11 -4,3 -11,4 -18,4 -8,0 -14,-1 -19,-4 -5,-2 -9,-6 -12,-11 -2,-4 -4,-9 -5,-17 -2,-7 -2,-17 -2,-30zm115 -9l12 0c6,0 11,-1 13,-3 3,-3 4,-7 4,-14 0,-6 -1,-10 -4,-12 -3,-3 -8,-4 -15,-4l-10 0 0 33zm-21 68l0 -117 39 0c11,0 20,2 25,7 5,5 8,13 8,24 0,7 -2,13 -4,18 -3,4 -7,7 -13,7 11,3 16,12 17,27 0,0 0,1 0,1l0 16c0,4 1,7 2,10 1,3 2,5 4,7l-26 0c0,-2 -1,-4 -1,-7 0,-3 -1,-6 -1,-11l0 -12 0 -4c0,-6 -1,-11 -4,-14 -3,-2 -9,-3 -18,-3l-7 0 0 51 -21 0zm110 -68l13 0c6,0 11,-1 13,-3 3,-3 4,-7 4,-14 0,-6 -2,-10 -4,-12 -3,-3 -8,-4 -15,-4l-11 0 0 33zm-21 68l0 -117 39 0c12,0 21,2 26,7 5,5 8,13 8,24 0,7 -2,13 -5,18 -2,4 -6,7 -12,7 11,3 16,12 16,27 0,0 0,1 0,1l1 16c0,4 1,7 2,10 1,3 2,5 4,7l-26 0c-1,-2 -1,-4 -1,-7 -1,-3 -1,-6 -1,-11l0 -12 0 -4c0,-6 -2,-11 -5,-14 -2,-2 -8,-3 -17,-3l-8 0 0 51 -21 0zm90 0l0 -117 60 0 0 19 -38 0 0 27 36 0 0 19 -36 0 0 32 39 0 0 20 -61 0zm77 0l0 -117 22 0 0 97 39 0 0 20 -61 0zm99 -47l18 0 -9 -49 -9 49zm-31 47l26 -117 29 0 27 117 -24 0 -5 -29 -26 0 -5 29 -22 0zm101 0l0 -98 -25 0 0 -19 72 0 0 19 -25 0 0 98 -22 0zm79 -59c0,20 1,32 3,37 2,5 6,7 12,7 6,0 11,-2 13,-7 2,-5 3,-17 3,-37 0,-19 -1,-31 -3,-36 -3,-5 -7,-8 -13,-8 -6,0 -10,3 -12,8 -2,5 -3,17 -3,36zm-23 0c0,-12 1,-22 2,-29 1,-8 3,-13 6,-17 3,-5 7,-9 12,-11 4,-3 11,-4 18,-4 8,0 14,1 19,4 5,2 9,6 12,11 3,4 4,9 6,17 1,7 1,17 1,29 0,13 0,23 -1,30 -2,8 -3,13 -6,17 -3,5 -7,9 -12,11 -5,3 -11,4 -19,4 -7,0 -14,-1 -18,-4 -5,-2 -9,-6 -12,-11 -3,-4 -5,-9 -6,-17 -1,-7 -2,-17 -2,-30zm92 18l22 0 0 7c0,8 1,13 2,15 2,3 5,4 10,4 4,0 8,-1 10,-3 3,-3 4,-6 4,-11 0,-3 -1,-6 -3,-9 -1,-2 -5,-6 -11,-9l-11 -8c-9,-7 -15,-13 -18,-17 -3,-4 -4,-10 -4,-16 0,-10 3,-18 9,-23 6,-6 14,-9 24,-9 11,0 19,3 25,9 6,6 8,14 8,26 0,1 0,2 0,2 0,1 0,1 0,2l-20 0 0 -3c0,-7 -1,-11 -4,-14 -2,-3 -5,-4 -10,-4 -3,0 -6,1 -8,3 -2,2 -3,5 -3,9 0,4 4,10 13,16l1 0 12 8c8,6 14,11 17,16 3,5 5,12 5,20 0,10 -3,18 -9,24 -7,6 -15,9 -27,9 -11,0 -20,-3 -26,-9 -6,-6 -8,-16 -8,-28 0,-1 0,-4 0,-7l0 0z"/>
  </g>
 </g>
</svg>
