<?xml version="1.0" encoding="UTF-8"?>
<!DOCTYPE svg PUBLIC "-//W3C//DTD SVG 1.1//EN" "http://www.w3.org/Graphics/SVG/1.1/DTD/svg11.dtd">
<!-- Creator: CorelDRAW X7 -->
<svg xmlns="http://www.w3.org/2000/svg" xml:space="preserve" width="488px" height="384px" version="1.1" style="shape-rendering:geometricPrecision; text-rendering:geometricPrecision; image-rendering:optimizeQuality; fill-rule:evenodd; clip-rule:evenodd"
viewBox="0 0 488 384"
 xmlns:xlink="http://www.w3.org/1999/xlink">
 <defs>
  <style type="text/css">
   <![CDATA[
    .fil0 {fill:#5A7380}
   ]]>
  </style>
 </defs>
 <g id="Camada_x0020_1">
  <metadata id="CorelCorpID_0Corel-Layer"/>
  <path class="fil0" d="M472 24c-4,-7 -14,-5 -25,1 -15,6 -42,36 -49,52 -6,24 -19,46 -41,70 -23,18 -62,11 -85,-4 -2,0 -95,-73 -95,-73 -34,-26 -57,-38 -86,-41 -1,-1 -2,-2 -3,-3 -4,-10 -5,-9 -8,-12 -4,3 -7,5 -10,6 -2,0 -2,0 -3,-1 -3,-1 -5,-3 -7,-3 -3,1 -6,6 -9,12 0,0 -7,6 -13,11 -2,2 -2,5 -4,7 -3,3 -7,8 -7,8 -2,4 -2,8 0,10 0,4 2,5 3,6 1,2 1,2 2,3 2,1 3,1 5,2 9,8 13,8 23,7 18,1 17,7 16,16 -1,2 -1,1 -2,2 -8,0 -17,-2 -25,-2 -18,2 -33,5 -32,26 2,9 17,21 25,5 1,-7 7,-4 12,-3 32,14 57,21 74,7 5,-6 9,-2 14,2 25,30 62,50 118,51 19,5 33,12 41,31 17,45 39,81 72,99 -3,29 -2,52 27,58 7,-6 -3,-15 5,-36 0,-9 -8,-17 -11,-34 -33,-27 -19,-39 -24,-57 -1,-26 -6,-47 -18,-67 -1,-3 1,-6 4,-7 19,-14 29,-28 34,-41 7,-24 19,-43 35,-56 14,-11 28,-15 43,-25 10,-16 8,-20 4,-27l0 0z"/>
 </g>
</svg>
